<svg width="25" height="21" viewBox="0 0 25 21" fill="none" xmlns="http://www.w3.org/2000/svg">
<path d="M22.667 16.333C23.9555 16.3332 25 17.3784 25 18.667C24.9998 19.9554 23.9554 20.9998 22.667 21H2.33301C1.04461 20.9998 0.000189117 19.9554 0 18.667C0 17.3784 1.04449 16.3332 2.33301 16.333H22.667ZM22.667 8.16699C23.9555 8.16717 25 9.21146 25 10.5C25 11.7886 23.9555 12.8328 22.667 12.833H2.33301C1.04449 12.8328 0 11.7886 0 10.5C1.33995e-05 9.21146 1.0445 8.16717 2.33301 8.16699H22.667ZM22.667 0C23.9554 0.000175495 24.9998 1.0446 25 2.33301C25 3.62156 23.9555 4.66682 22.667 4.66699H2.33301C1.04449 4.66682 0 3.62156 0 2.33301C0.000175721 1.0446 1.0446 0.000175596 2.33301 0H22.667Z" fill="black"/>
</svg>
